<svg width="1440" height="822" viewBox="0 0 1440 822" fill="none" xmlns="http://www.w3.org/2000/svg">
<mask id="mask0_1_58" style="mask-type:alpha" maskUnits="userSpaceOnUse" x="0" y="-18" width="1440" height="840">
<rect y="-18" width="1440" height="840" fill="#E9EFFF"/>
</mask>
<g mask="url(#mask0_1_58)">
<g filter="url(#filter0_f_1_58)">
<path d="M-269.763 1468.94C-327.977 989.79 539.281 983.615 1385.63 1176.17C1987.92 1066.46 3022.38 1964.01 1929.74 902.713C837.104 -158.58 -1017.59 721.108 -1087 1417.44C-1156.41 2113.77 -211.549 1948.09 -269.763 1468.94Z" fill="url(#paint0_linear_1_58)" fill-opacity="0.5"/>
</g>
<g filter="url(#filter1_f_1_58)">
<path d="M252.041 1354.22C324.015 1422.35 129.227 1345.65 1017.65 898.199C2609.3 34.2991 261.279 -292.155 500.126 231.506C738.973 755.168 167.743 1274.42 252.041 1354.22Z" fill="url(#paint1_linear_1_58)" fill-opacity="0.5"/>
</g>
<g filter="url(#filter2_f_1_58)">
<path d="M1793.66 809.603C1765.35 897.163 1646.47 1295.96 1299.54 1329.77C877.912 1348.82 1053.7 1698.22 1353.72 1764.1C1653.75 1829.99 1342.05 1458.94 1473.86 1406.92C1605.68 1354.91 1627.07 1437.27 1856.74 1406.92C2086.41 1376.58 2117.14 1006.4 2018.48 794.865C1919.82 583.331 1821.96 722.042 1793.66 809.603Z" fill="url(#paint2_linear_1_58)" fill-opacity="0.5"/>
</g>
<g filter="url(#filter3_f_1_58)">
<path d="M1602 -111.5C1681.7 -170.052 885.999 -53.4929 366.499 70.5037C-153 194.5 147.252 1475.49 502 1024.5C913.001 502 1508.65 -42.9215 1602 -111.5Z" fill="url(#paint3_linear_1_58)"/>
</g>
<g filter="url(#filter4_f_1_58)">
<path d="M2149.07 1385.32C2164.21 1483.26 2211.84 1279.4 1338.68 1755.96C-276.85 2574.33 789.336 457.017 1084.38 951.2C1379.43 1445.38 2131.34 1270.6 2149.07 1385.32Z" fill="url(#paint4_linear_1_58)" fill-opacity="0.5"/>
</g>
</g>
<defs>
<filter id="filter0_f_1_58" x="-1291.33" y="209.048" width="3901.13" height="1876.66" filterUnits="userSpaceOnUse" color-interpolation-filters="sRGB">
<feFlood flood-opacity="0" result="BackgroundImageFix"/>
<feBlend mode="normal" in="SourceGraphic" in2="BackgroundImageFix" result="shape"/>
<feGaussianBlur stdDeviation="100.34" result="effect1_foregroundBlur_1_58"/>
</filter>
<filter id="filter1_f_1_58" x="156.567" y="-107.338" width="1505.3" height="1570.16" filterUnits="userSpaceOnUse" color-interpolation-filters="sRGB">
<feFlood flood-opacity="0" result="BackgroundImageFix"/>
<feBlend mode="normal" in="SourceGraphic" in2="BackgroundImageFix" result="shape"/>
<feGaussianBlur stdDeviation="43.4522" result="effect1_foregroundBlur_1_58"/>
</filter>
<filter id="filter2_f_1_58" x="962.459" y="596.471" width="1195.98" height="1262.35" filterUnits="userSpaceOnUse" color-interpolation-filters="sRGB">
<feFlood flood-opacity="0" result="BackgroundImageFix"/>
<feBlend mode="normal" in="SourceGraphic" in2="BackgroundImageFix" result="shape"/>
<feGaussianBlur stdDeviation="43.4522" result="effect1_foregroundBlur_1_58"/>
</filter>
<filter id="filter3_f_1_58" x="-49.4642" y="-263.87" width="1793.81" height="1520.95" filterUnits="userSpaceOnUse" color-interpolation-filters="sRGB">
<feFlood flood-opacity="0" result="BackgroundImageFix"/>
<feBlend mode="normal" in="SourceGraphic" in2="BackgroundImageFix" result="shape"/>
<feGaussianBlur stdDeviation="68.395" result="effect1_foregroundBlur_1_58"/>
</filter>
<filter id="filter4_f_1_58" x="379.084" y="788.564" width="1862.76" height="1244.54" filterUnits="userSpaceOnUse" color-interpolation-filters="sRGB">
<feFlood flood-opacity="0" result="BackgroundImageFix"/>
<feBlend mode="normal" in="SourceGraphic" in2="BackgroundImageFix" result="shape"/>
<feGaussianBlur stdDeviation="43.4522" result="effect1_foregroundBlur_1_58"/>
</filter>
<linearGradient id="paint0_linear_1_58" x1="1430.43" y1="2112.02" x2="199.252" y2="2097.33" gradientUnits="userSpaceOnUse">
<stop stop-color="#B4F2FF"/>
<stop offset="1" stop-color="#DAEDFF"/>
</linearGradient>
<linearGradient id="paint1_linear_1_58" x1="622.5" y1="866.388" x2="461.933" y2="87.7043" gradientUnits="userSpaceOnUse">
<stop stop-color="#E9EFFF"/>
<stop offset="1" stop-color="#DAEDFF"/>
</linearGradient>
<linearGradient id="paint2_linear_1_58" x1="1991.89" y1="1281.07" x2="1635.32" y2="944.222" gradientUnits="userSpaceOnUse">
<stop stop-color="#CAF6D7"/>
<stop offset="1" stop-color="#DAEDFF"/>
</linearGradient>
<linearGradient id="paint3_linear_1_58" x1="855" y1="505.999" x2="186.955" y2="371.729" gradientUnits="userSpaceOnUse">
<stop stop-color="white"/>
<stop offset="1" stop-color="white" stop-opacity="0"/>
</linearGradient>
<linearGradient id="paint4_linear_1_58" x1="1590.33" y1="983.765" x2="1640.15" y2="1621.64" gradientUnits="userSpaceOnUse">
<stop stop-color="#CAF6D7"/>
<stop offset="1" stop-color="#DAEDFF"/>
</linearGradient>
</defs>
</svg>
