<svg width="116" height="48" viewBox="0 0 116 48" fill="none" xmlns="http://www.w3.org/2000/svg">
<path d="M30.8325 18.8966C31.7633 16.0264 31.2034 10.3004 29.4 8.18644C29.1636 7.90914 28.7237 7.94875 28.5273 8.25486L26.3058 11.7085C25.7568 12.3999 24.7678 12.5584 24.0225 12.0758C21.6119 10.5129 18.7322 9.60533 15.6381 9.60533C12.544 9.60533 9.66433 10.5129 7.25374 12.0758C6.51202 12.5584 5.52305 12.3963 4.9704 11.7085L2.74887 8.25486C2.55253 7.94875 2.11259 7.91274 1.87625 8.18644C0.0728518 10.304 -0.487076 16.03 0.443713 18.8966C0.752764 19.8509 0.836389 20.8593 0.654594 21.8388C0.4728 22.8112 0.291005 23.9852 0.291005 24.8027C0.291005 33.1972 7.16284 40 15.6345 40C24.1097 40 30.9779 33.1936 30.9779 24.8027C30.9779 23.9852 30.7961 22.8112 30.6143 21.8388C30.4362 20.8593 30.5234 19.8509 30.8325 18.8966ZM15.6345 36.6076C9.08259 36.6076 3.75601 31.3282 3.75601 24.8387C3.75601 24.6262 3.76328 24.4173 3.77419 24.2085C4.01052 19.7861 6.7229 16.0084 10.5588 14.2077C12.0967 13.4803 13.8202 13.077 15.6381 13.077C17.456 13.077 19.1758 13.4803 20.7174 14.2113C24.5533 16.012 27.2657 19.7933 27.502 24.2121C27.5129 24.4209 27.5202 24.6334 27.5202 24.8423C27.5166 31.3282 22.1863 36.6076 15.6345 36.6076Z" fill="#23303D"/>
<path d="M20.7829 29.3691L17.7469 24.1544L15.1436 19.8077C15.0818 19.7033 14.9691 19.6421 14.8491 19.6421H12.3622C12.2385 19.6421 12.1258 19.7069 12.064 19.8149C12.0022 19.9194 12.0058 20.049 12.0677 20.1534L14.5582 24.2985L11.2169 29.3475C11.1478 29.4519 11.1441 29.5851 11.2023 29.6932C11.2605 29.8012 11.3768 29.8696 11.5041 29.8696H14.0092C14.1256 29.8696 14.2346 29.812 14.2965 29.7148L16.1035 26.9202L17.7251 29.704C17.7869 29.8084 17.8996 29.8732 18.0196 29.8732H20.4884C20.612 29.8732 20.7247 29.8084 20.7829 29.704C20.8447 29.6032 20.8447 29.4735 20.7829 29.3691Z" fill="#23303D"/>
<path d="M45.1288 16.102H48.2956V33.3017H45.1288V25.9731H41.5511V33.3053H38.3842V16.102H41.5511V23.571H45.1288V16.102Z" fill="#23303D"/>
<path d="M58.0653 33.3053L57.4036 29.7328H53.6041L52.9969 33.3053H49.83L53.3241 16.1056H57.589L61.2504 33.3053H58.0653ZM54.0186 27.3596H56.9636L55.4511 19.1271L54.0186 27.3596Z" fill="#23303D"/>
<path d="M68.304 30.1686V26.4881C68.304 26.1964 68.2495 26.0019 68.1404 25.9011C68.0313 25.8002 67.8277 25.7498 67.5332 25.7498H65.3044C63.4137 25.7498 62.4684 24.8423 62.4684 23.0236V18.803C62.4684 17.0023 63.4573 16.1056 65.4389 16.1056H68.4676C70.4492 16.1056 71.4381 17.0059 71.4381 18.803V21.2014H68.2458V19.2387C68.2458 18.947 68.1913 18.7525 68.0822 18.6517C67.9731 18.5509 67.7695 18.5005 67.475 18.5005H66.4279C66.1152 18.5005 65.9043 18.5509 65.7952 18.6517C65.6862 18.7525 65.6316 18.947 65.6316 19.2387V22.6995C65.6316 22.9912 65.6862 23.1857 65.7952 23.2865C65.9043 23.3874 66.1152 23.4378 66.4279 23.4378H68.6021C70.5292 23.4378 71.4927 24.3273 71.4927 26.1099V30.6079C71.4927 32.4085 70.4928 33.3053 68.4931 33.3053H65.5189C63.5192 33.3053 62.5193 32.4049 62.5193 30.6079V28.2347H65.6825V30.1686C65.6825 30.4603 65.7371 30.6547 65.8461 30.7556C65.9552 30.8564 66.1661 30.9068 66.4788 30.9068H67.5259C67.8204 30.9068 68.0204 30.8564 68.1331 30.7556C68.2458 30.6547 68.304 30.4603 68.304 30.1686Z" fill="#23303D"/>
<path d="M79.9425 16.102H83.1057V30.6043C83.1057 32.4049 82.1058 33.3017 80.1061 33.3017H76.7502C74.7504 33.3017 73.7505 32.4013 73.7505 30.6043V16.102H76.9174V30.1686C76.9174 30.4603 76.9719 30.6547 77.081 30.7556C77.1901 30.8564 77.3937 30.9068 77.6882 30.9068H79.1462C79.4589 30.9068 79.6698 30.8564 79.7789 30.7556C79.8879 30.6547 79.9425 30.4603 79.9425 30.1686V16.102Z" fill="#23303D"/>
<path d="M88.8867 26.5997V33.3053H85.7235V16.102H92.1081C94.1079 16.102 95.1077 17.0023 95.1077 18.7994V23.8988C95.1077 25.3897 94.4387 26.2612 93.0971 26.5169L95.9876 33.3053H92.5735L89.9302 26.5997H88.8867ZM88.8867 18.5005V24.2805H91.1701C91.4646 24.2805 91.6645 24.2301 91.7773 24.1292C91.8863 24.0284 91.9409 23.8339 91.9409 23.5422V19.2387C91.9409 18.947 91.8863 18.7525 91.7773 18.6517C91.6682 18.5509 91.4646 18.5005 91.1701 18.5005H88.8867Z" fill="#23303D"/>
<path d="M104.685 33.3053L104.023 29.7328H100.223L99.6163 33.3053H96.4531L99.9472 16.1056H104.212L107.873 33.3053H104.685ZM100.642 27.3596H103.587L102.074 19.1271L100.642 27.3596Z" fill="#23303D"/>
</svg>
