<svg width="14" height="14" viewBox="0 0 14 14" fill="none" xmlns="http://www.w3.org/2000/svg">
<path d="M9.62108 8.5009H9.02858L8.81858 8.2984C9.55358 7.4434 9.99608 6.3334 9.99608 5.12589C9.99608 2.43339 7.81358 0.250885 5.12107 0.250885C2.42857 0.250885 0.246063 2.43339 0.246063 5.12589C0.246063 7.8184 2.42857 10.0009 5.12107 10.0009C6.32857 10.0009 7.43858 9.5584 8.29358 8.8234L8.49608 9.0334V9.6259L11.7158 12.8391C12.0087 13.1315 12.4832 13.1313 12.7759 12.8386L12.8338 12.7807C13.1265 12.488 13.1267 12.0136 12.8343 11.7206L9.62108 8.5009ZM5.12107 8.5009C3.25357 8.5009 1.74607 6.9934 1.74607 5.12589C1.74607 3.25839 3.25357 1.75089 5.12107 1.75089C6.98858 1.75089 8.49608 3.25839 8.49608 5.12589C8.49608 6.9934 6.98858 8.5009 5.12107 8.5009Z" fill="#23303D"/>
</svg>
